<svg width="324" height="52" viewBox="0 0 324 52" fill="none" xmlns="http://www.w3.org/2000/svg">
<g filter="url(#filter0_d_2842_297318)">
<rect x="2" y="1" width="320" height="48" rx="8" fill="white"/>
<rect x="2.5" y="1.5" width="319" height="47" rx="7.5" stroke="#D0D5DD"/>
<path d="M35.5 32.5L31.875 28.875M33.8333 24.1667C33.8333 27.8486 30.8486 30.8333 27.1667 30.8333C23.4848 30.8333 20.5 27.8486 20.5 24.1667C20.5 20.4848 23.4848 17.5 27.1667 17.5C30.8486 17.5 33.8333 20.4848 33.8333 24.1667Z" stroke="#667085" stroke-width="1.66667" stroke-linecap="round" stroke-linejoin="round"/>
<path d="M53.7727 22.2727C53.7045 21.697 53.428 21.25 52.9432 20.9318C52.4583 20.6136 51.8636 20.4545 51.1591 20.4545C50.6439 20.4545 50.1932 20.5379 49.8068 20.7045C49.4242 20.8712 49.125 21.1004 48.9091 21.392C48.697 21.6837 48.5909 22.0152 48.5909 22.3864C48.5909 22.697 48.6648 22.964 48.8125 23.1875C48.964 23.4072 49.1572 23.5909 49.392 23.7386C49.6269 23.8826 49.8731 24.0019 50.1307 24.0966C50.3883 24.1875 50.625 24.2614 50.8409 24.3182L52.0227 24.6364C52.3258 24.7159 52.6629 24.8258 53.0341 24.9659C53.4091 25.1061 53.767 25.2973 54.108 25.5398C54.4527 25.7784 54.7367 26.0852 54.9602 26.4602C55.1837 26.8352 55.2955 27.2955 55.2955 27.8409C55.2955 28.4697 55.1307 29.0379 54.8011 29.5455C54.4754 30.053 53.9981 30.4564 53.3693 30.7557C52.7443 31.0549 51.9848 31.2045 51.0909 31.2045C50.2576 31.2045 49.536 31.0701 48.9261 30.8011C48.3201 30.5322 47.8428 30.1572 47.4943 29.6761C47.1496 29.1951 46.9545 28.6364 46.9091 28H48.3636C48.4015 28.4394 48.5492 28.803 48.8068 29.0909C49.0682 29.375 49.3977 29.5871 49.7955 29.7273C50.197 29.8636 50.6288 29.9318 51.0909 29.9318C51.6288 29.9318 52.1117 29.8447 52.5398 29.6705C52.9678 29.4924 53.3068 29.2462 53.5568 28.9318C53.8068 28.6136 53.9318 28.2424 53.9318 27.8182C53.9318 27.4318 53.8239 27.1174 53.608 26.875C53.392 26.6326 53.108 26.4356 52.7557 26.2841C52.4034 26.1326 52.0227 26 51.6136 25.8864L50.1818 25.4773C49.2727 25.2159 48.553 24.8428 48.0227 24.358C47.4924 23.8731 47.2273 23.2386 47.2273 22.4545C47.2273 21.803 47.4034 21.2348 47.7557 20.75C48.1117 20.2614 48.589 19.8826 49.1875 19.6136C49.7898 19.3409 50.4621 19.2045 51.2045 19.2045C51.9545 19.2045 52.6212 19.339 53.2045 19.608C53.7879 19.8731 54.25 20.2367 54.5909 20.6989C54.9356 21.161 55.1174 21.6856 55.1364 22.2727H53.7727ZM61.0895 31.1818C60.2486 31.1818 59.5232 30.9962 58.9134 30.625C58.3073 30.25 57.8395 29.7273 57.5099 29.0568C57.1842 28.3826 57.0213 27.5985 57.0213 26.7045C57.0213 25.8106 57.1842 25.0227 57.5099 24.3409C57.8395 23.6553 58.2978 23.1212 58.8849 22.7386C59.4759 22.3523 60.1652 22.1591 60.9531 22.1591C61.4077 22.1591 61.8565 22.2348 62.2997 22.3864C62.7429 22.5379 63.1463 22.7841 63.5099 23.125C63.8736 23.4621 64.1634 23.9091 64.3793 24.4659C64.5952 25.0227 64.7031 25.7083 64.7031 26.5227V27.0909H57.9759V25.9318H63.3395C63.3395 25.4394 63.241 25 63.044 24.6136C62.8509 24.2273 62.5743 23.9223 62.2145 23.6989C61.8584 23.4754 61.438 23.3636 60.9531 23.3636C60.419 23.3636 59.9569 23.4962 59.5668 23.7614C59.1804 24.0227 58.883 24.3636 58.6747 24.7841C58.4664 25.2045 58.3622 25.6553 58.3622 26.1364V26.9091C58.3622 27.5682 58.4759 28.1269 58.7031 28.5852C58.9342 29.0398 59.2543 29.3864 59.6634 29.625C60.0724 29.8598 60.5478 29.9773 61.0895 29.9773C61.4418 29.9773 61.7599 29.928 62.044 29.8295C62.3319 29.7273 62.58 29.5758 62.7884 29.375C62.9967 29.1705 63.1577 28.9167 63.2713 28.6136L64.5668 28.9773C64.4304 29.4167 64.2012 29.803 63.8793 30.1364C63.5573 30.4659 63.1596 30.7235 62.6861 30.9091C62.2126 31.0909 61.6804 31.1818 61.0895 31.1818ZM69.3111 31.2045C68.758 31.2045 68.2562 31.1004 67.8054 30.892C67.3546 30.6799 66.9967 30.375 66.7315 29.9773C66.4664 29.5758 66.3338 29.0909 66.3338 28.5227C66.3338 28.0227 66.4323 27.6174 66.6293 27.3068C66.8262 26.9924 67.0895 26.7462 67.419 26.5682C67.7486 26.3902 68.1122 26.2576 68.5099 26.1705C68.9115 26.0795 69.3149 26.0076 69.7202 25.9545C70.2505 25.8864 70.6804 25.8352 71.0099 25.8011C71.3433 25.7633 71.5857 25.7008 71.7372 25.6136C71.8925 25.5265 71.9702 25.375 71.9702 25.1591V25.1136C71.9702 24.553 71.8168 24.1174 71.5099 23.8068C71.2069 23.4962 70.7467 23.3409 70.1293 23.3409C69.4891 23.3409 68.9872 23.4811 68.6236 23.7614C68.2599 24.0417 68.0043 24.3409 67.8565 24.6591L66.5838 24.2045C66.8111 23.6742 67.1141 23.2614 67.4929 22.9659C67.8755 22.6667 68.2921 22.4583 68.7429 22.3409C69.1974 22.2197 69.6444 22.1591 70.0838 22.1591C70.3641 22.1591 70.6861 22.1932 71.0497 22.2614C71.4171 22.3258 71.7713 22.4602 72.1122 22.6648C72.4569 22.8693 72.7429 23.178 72.9702 23.5909C73.1974 24.0038 73.3111 24.5568 73.3111 25.25V31H71.9702V29.8182H71.902C71.8111 30.0076 71.6596 30.2102 71.4474 30.4261C71.2353 30.642 70.9531 30.8258 70.6009 30.9773C70.2486 31.1288 69.8187 31.2045 69.3111 31.2045ZM69.5156 30C70.0459 30 70.4929 29.8958 70.8565 29.6875C71.224 29.4792 71.5005 29.2102 71.6861 28.8807C71.8755 28.5511 71.9702 28.2045 71.9702 27.8409V26.6136C71.9134 26.6818 71.7884 26.7443 71.5952 26.8011C71.4058 26.8542 71.1861 26.9015 70.9361 26.9432C70.6899 26.9811 70.4493 27.0152 70.2145 27.0455C69.9834 27.072 69.7959 27.0947 69.652 27.1136C69.3035 27.1591 68.9777 27.233 68.6747 27.3352C68.3755 27.4337 68.133 27.5833 67.9474 27.7841C67.7656 27.9811 67.6747 28.25 67.6747 28.5909C67.6747 29.0568 67.8471 29.4091 68.1918 29.6477C68.5402 29.8826 68.9815 30 69.5156 30ZM75.7585 31V22.2727H77.054V23.5909H77.1449C77.304 23.1591 77.5919 22.8087 78.0085 22.5398C78.4252 22.2708 78.8949 22.1364 79.4176 22.1364C79.5161 22.1364 79.6392 22.1383 79.7869 22.142C79.9347 22.1458 80.0464 22.1515 80.1222 22.1591V23.5227C80.0767 23.5114 79.9725 23.4943 79.8097 23.4716C79.6506 23.4451 79.482 23.4318 79.304 23.4318C78.8797 23.4318 78.5009 23.5208 78.1676 23.6989C77.8381 23.8731 77.5767 24.1155 77.3835 24.4261C77.1941 24.733 77.0994 25.0833 77.0994 25.4773V31H75.7585ZM84.9915 31.1818C84.1733 31.1818 83.4688 30.9886 82.8778 30.6023C82.2869 30.2159 81.8324 29.6837 81.5142 29.0057C81.196 28.3277 81.0369 27.553 81.0369 26.6818C81.0369 25.7955 81.1998 25.0133 81.5256 24.3352C81.8551 23.6534 82.3134 23.1212 82.9006 22.7386C83.4915 22.3523 84.1809 22.1591 84.9688 22.1591C85.5824 22.1591 86.1354 22.2727 86.6278 22.5C87.1203 22.7273 87.5237 23.0455 87.8381 23.4545C88.1525 23.8636 88.3475 24.3409 88.4233 24.8864H87.0824C86.9801 24.4886 86.7528 24.1364 86.4006 23.8295C86.0521 23.5189 85.5824 23.3636 84.9915 23.3636C84.4688 23.3636 84.0104 23.5 83.6165 23.7727C83.2263 24.0417 82.9214 24.4223 82.7017 24.9148C82.4858 25.4034 82.3778 25.9773 82.3778 26.6364C82.3778 27.3106 82.4839 27.8977 82.696 28.3977C82.9119 28.8977 83.215 29.286 83.6051 29.5625C83.9991 29.839 84.4612 29.9773 84.9915 29.9773C85.34 29.9773 85.6562 29.9167 85.9403 29.7955C86.2244 29.6742 86.465 29.5 86.6619 29.2727C86.8589 29.0455 86.9991 28.7727 87.0824 28.4545H88.4233C88.3475 28.9697 88.16 29.4337 87.8608 29.8466C87.5653 30.2557 87.1733 30.5814 86.6847 30.8239C86.1998 31.0625 85.6354 31.1818 84.9915 31.1818ZM91.7244 25.75V31H90.3835V19.3636H91.7244V23.6364H91.8381C92.0426 23.1856 92.3494 22.8277 92.7585 22.5625C93.1714 22.2936 93.7206 22.1591 94.4062 22.1591C95.0009 22.1591 95.5218 22.2784 95.9688 22.517C96.4157 22.7519 96.7623 23.1136 97.0085 23.6023C97.2585 24.0871 97.3835 24.7045 97.3835 25.4545V31H96.0426V25.5455C96.0426 24.8523 95.8627 24.3163 95.5028 23.9375C95.1468 23.5549 94.6525 23.3636 94.0199 23.3636C93.5805 23.3636 93.1866 23.4564 92.8381 23.642C92.4934 23.8277 92.2206 24.0985 92.0199 24.4545C91.8229 24.8106 91.7244 25.2424 91.7244 25.75Z" fill="#667085"/>
</g>
<defs>
<filter id="filter0_d_2842_297318" x="0" y="0" width="324" height="52" filterUnits="userSpaceOnUse" color-interpolation-filters="sRGB">
<feFlood flood-opacity="0" result="BackgroundImageFix"/>
<feColorMatrix in="SourceAlpha" type="matrix" values="0 0 0 0 0 0 0 0 0 0 0 0 0 0 0 0 0 0 127 0" result="hardAlpha"/>
<feOffset dy="1"/>
<feGaussianBlur stdDeviation="1"/>
<feColorMatrix type="matrix" values="0 0 0 0 0.0627451 0 0 0 0 0.0941176 0 0 0 0 0.156863 0 0 0 0.05 0"/>
<feBlend mode="normal" in2="BackgroundImageFix" result="effect1_dropShadow_2842_297318"/>
<feBlend mode="normal" in="SourceGraphic" in2="effect1_dropShadow_2842_297318" result="shape"/>
</filter>
</defs>
</svg>
